<svg xmlns="http://www.w3.org/2000/svg" viewBox="0 0 15.594 15.438"><path fill="#323232" d="M14.848.775c-.272-.254-.777-.557-1.629-.557h-6.75c-2.323 0-3.75 1.747-3.75 3v7c0 .222-.152.557-.369 1h-.131c-1.313 0-2 1.006-2 2s.688 2 2 2h7.5c1.788 0 2-4.95 2-5v-6h1.5a2.163 2.163 0 0 0 2.193-2.123c0-.514-.201-.983-.564-1.32zm-4.137 2.102c.004.118.008.231.008.342v7c0 1.323-.574 3.796-1.014 4H2.219a.988.988 0 0 1-1-1c0-.367.178-.77.616-.925.112-.04.231-.075.384-.075h6.5a.5.5 0 0 0 0-1H3.452c.163-.368.267-.681.267-1v-7c0-.679.971-2 2.75-2h4.461c-.256.522-.237 1.139-.219 1.658zm3.387-.018a1.172 1.172 0 0 1-.879.359h-1.5c0-.119-.004-.246-.008-.375-.019-.503-.036-1.074.231-1.352.177-.183.502-.273.97-.273h.307c.746 0 1.193.328 1.193.877 0 .275-.115.553-.314.764z"/></svg>